<svg xmlns="http://www.w3.org/2000/svg" viewBox="0 0 40 40">
  <rect width="40" height="40" rx="9" fill="#0d2818"/>
  <path d="M20 5C20 5 9 11 9 21C9 28 14 34 20 34C26 34 31 28 31 21C31 11 20 5 20 5Z" fill="#52b788"/>
  <path d="M20 10C20 10 13 15 13 21C13 25 16 28 20 28C24 28 27 25 27 21C27 15 20 10 20 10Z" fill="#95d5b2"/>
  <path d="M20 15L20 32" stroke="#ffffff" stroke-width="1.5" stroke-linecap="round"/>
  <path d="M20 22L17 19" stroke="#ffffff" stroke-width="1.5" stroke-linecap="round"/>
  <path d="M20 26L23 23" stroke="#ffffff" stroke-width="1.5" stroke-linecap="round"/>
</svg>
